/* XPM */
static char *result[] = {
/* columns rows colors chars-per-pixel */
"32 32 9 1 ",
"  c black",
". c gray13",
"X c gray26",
"o c gray38",
"O c #FF5722",
"+ c #FFEB3B",
"@ c gray62",
"# c white",
"$ c None",
/* pixels */
"$$$$$$$$$$$$$$+$+$$+$$+$$$$$$$$$",
"$$$$$$$$$$$$$$$$$OO$$+$$$$$$$$$$",
"$$$$$$$$$$$$$+$$$OO$$$$$$$$$$$$$",
"$$$$$$$$$$$$$$$$+o@+$$$$$$$$$$$$",
"$$$$$$$$$$$$$$+@o@@$$+$$$$$$$$$$",
"$$$$$$$$$$$$$$$o@@$$+$$$$$$$$$$$",
"$$$$$$$$$$$$$$$@o$$$$$$$$$$$$$$$",
"$$$$$$$$$$$$$$$o@$$$$$$$$$$$$$$$",
"$$$$$$$$$$$$$      $$$$$$$$$$$$$",
"$$$$$$$$$$$          $$$$$$$$$$$",
"$$$$$$$$$$  ##        $$$$$$$$$$",
"$$$$$$$$$  ###    XX   $$$$$$$$$",
"$$$$$$$$$  ##     XXX  $$$$$$$$$",
"$$$$$$$$         XXXX   $$$$$$$$",
"$$$$$$$$        XXXXX.  $$$$$$$$",
"$$$$$$$$  XX   XXXXX..  $$$$$$$$",
"$$$$$$$$  XXXXXXXXX...  $$$$$$$$",
"$$$$$$$$  XXXXXXXX....  $$$$$$$$",
"$$$$$$$$   XXXXXX....   $$$$$$$$",
"$$$$$$$$$  XXXXX.....  $$$$$$$$$",
"$$$$$$$$$   ........   $$$$$$$$$",
"$$$$$$$$$$    .....   $$$$$$$$$$",
"$$$$$$$$$$$          $$$$$$$$$$$",
"$$$$$$$$$$$$$      $$$$$$$$$$$$$",
"$$$$$$$$$$$$$$$$$$$$$$$$$$$$$$$$",
"$$$$$$$$$$$$$$$$$$$$$$$$$$$$$$$$",
"$$$$$$$$$$$$$$$$$$$$$$$$$$$$$$$$",
"$$$$$$$$$$$$$$$$$$$$$$$$$$$$$$$$",
"$$$$$$$$$$$$$$$$$$$$$$$$$$$$$$$$",
"$$$$$$$$$$$$$$$$$$$$$$$$$$$$$$$$",
"$$$$$$$$$$$$$$$$$$$$$$$$$$$$$$$$",
"$$$$$$$$$$$$$$$$$$$$$$$$$$$$$$$$"
};
