/* XPM */
static char *f410e3045e824da9e0af15f86c7935ebfHFWOKcg5oK9nGME[] = {
/* columns rows colors chars-per-pixel */
"32 32 6 1 ",
"  c #795548",
". c #8D6E63",
"X c #A1887F",
"o c #BCAAA4",
"O c #FFD180",
"+ c #FFCCBC",
/* pixels */
"    +    +    OOOO    +    +    ",
"    +    +    OOOO    +    +    ",
"    +    +    OOOO    +    +    ",
"    +    +    OOOO    +    +    ",
"++++++++++++++++++++++++++++++++",
"    +....+............+....+    ",
"    +....+............+....+    ",
"    +....+............+....+    ",
"    +....+............+....+    ",
"++++++++++++++++++++++++++++++++",
"    +....+XXXXOOOOXXXX+....+    ",
"    +....+XXXXOOOOXXXX+....+    ",
"    +....+XXXXOOOOXXXX+....+    ",
"    +....+XXXXOOOOXXXX+....+    ",
"OOOO+....+OOOOooooOOOO+....+OOOO",
"OOOO+....+OOOOooooOOOO+....+OOOO",
"OOOO+....+OOOOooooOOOO+....+OOOO",
"OOOO+....+OOOOooooOOOO+....+OOOO",
"    +....+XXXXOOOOXXXX+....+    ",
"    +....+XXXXOOOOXXXX+....+    ",
"    +....+XXXXOOOOXXXX+....+    ",
"    +....+XXXXOOOOXXXX+....+    ",
"++++++++++++++++++++++++++++++++",
"    +....+............+....+    ",
"    +....+............+....+    ",
"    +....+............+....+    ",
"    +....+............+....+    ",
"++++++++++++++++++++++++++++++++",
"    +    +    OOOO    +    +    ",
"    +    +    OOOO    +    +    ",
"    +    +    OOOO    +    +    ",
"    +    +    OOOO    +    +    "
};
