/* XPM */
static char *_944c12f687e4440accb8a50e038bb328YjbNhpgouOSjI5l[] = {
/* columns rows colors chars-per-pixel */
"32 32 7 1 ",
"  c black",
". c #795548",
"X c #8D6E63",
"o c #A1887F",
"O c #BCAAA4",
"+ c #FFD180",
"@ c #FFCCBC",
/* pixels */
"                                ",
" ...@....@....++++....@....@... ",
" ...@....@....++++....@....@... ",
" ...@....@....++++....@....@... ",
" @@@@@@@@@@@@@@@@@@@@@@@@@@@@@@ ",
" ...@XXXX@XXXXXXXXXXXX@XXXX@... ",
" ...@XXXX@XXXXXXXXXXXX@XXXX@... ",
" ...@XXXX@XXXXXXXXXXXX@XXXX@... ",
" ...@XXXX@XXXXXXXXXXXX@XXXX@... ",
" @@@@@@@@@@@@@@@@@@@@@@@@@@@@@@ ",
" ...@XXXX@oooo++++oooo@XXXX@... ",
" ...@XXXX@oooo++++oooo@XXXX@... ",
" ...@XXXX@oooo++++oooo@XXXX@... ",
" ...@XXXX@oooo++++oooo@XXXX@... ",
" +++@XXXX@++++OOOO++++@XXXX@+++ ",
" +++@XXXX@++++OOOO++++@XXXX@+++ ",
" +++@XXXX@++++OOOO++++@XXXX@+++ ",
" +++@XXXX@++++OOOO++++@XXXX@+++ ",
" ...@XXXX@oooo++++oooo@XXXX@... ",
" ...@XXXX@oooo++++oooo@XXXX@... ",
" ...@XXXX@oooo++++oooo@XXXX@... ",
" ...@XXXX@oooo++++oooo@XXXX@... ",
" @@@@@@@@@@@@@@@@@@@@@@@@@@@@@@ ",
" ...@XXXX@XXXXXXXXXXXX@XXXX@... ",
" ...@XXXX@XXXXXXXXXXXX@XXXX@... ",
" ...@XXXX@XXXXXXXXXXXX@XXXX@... ",
" ...@XXXX@XXXXXXXXXXXX@XXXX@... ",
" @@@@@@@@@@@@@@@@@@@@@@@@@@@@@@ ",
" ...@....@....++++....@....@... ",
" ...@....@....++++....@....@... ",
" ...@....@....++++....@....@... ",
"                                "
};
