/* XPM */
static char *f9daf9750d8f49badb6a15451789e0f8iAstp7VXng7SQeTg[] = {
/* columns rows colors chars-per-pixel */
"32 32 8 1 ",
"  c gray26",
". c #795548",
"X c gray38",
"o c #8D6E63",
"O c #A1887F",
"+ c #FFAB91",
"@ c #FFCCBC",
"# c #FFE0B2",
/* pixels */
"X                               ",
"X...@....@............@....@... ",
"X...@....@............@....@... ",
"X...@....@............@....@... ",
"X@@@@@@@@@@@@@@@@@@@@@@@@@@@@@@ ",
"X...@oooo@oooooooooooo@oooo@... ",
"X...@oooo@oooooooooooo@oooo@... ",
"X...@oooo@oooooooooooo@oooo@... ",
"X...@oooo@oooooooooooo@oooo@... ",
"X@@@@@@@@@@@@@@@@@@@@@@@@@@@@@@ ",
"X...@oooo@OOOO####OOOO@oooo@... ",
"X...@oooo@OOOO####OOOO@oooo@... ",
"X...@oooo@OOOO####OOOO@oooo@... ",
"X...@oooo@OOOO####OOOO@oooo@... ",
"X...@oooo@####++++####@oooo@... ",
"X...@oooo@####++++####@oooo@... ",
"X...@oooo@####++++####@oooo@... ",
"X...@oooo@####++++####@oooo@... ",
"X...@oooo@OOOO####OOOO@oooo@... ",
"X...@oooo@OOOO####OOOO@oooo@... ",
"X...@oooo@OOOO####OOOO@oooo@... ",
"X...@oooo@OOOO####OOOO@oooo@... ",
"X@@@@@@@@@@@@@@@@@@@@@@@@@@@@@@ ",
"X...@oooo@oooooooooooo@oooo@... ",
"X...@oooo@oooooooooooo@oooo@... ",
"X...@oooo@oooooooooooo@oooo@... ",
"X...@oooo@oooooooooooo@oooo@... ",
"X@@@@@@@@@@@@@@@@@@@@@@@@@@@@@@ ",
"X...@....@............@....@... ",
"X...@....@............@....@... ",
"X...@....@............@....@... ",
"XXXXXXXXXXXXXXXXXXXXXXXXXXXXXXX "
};
