/* XPM */
static char *_221d8956d924f17fbd157ad0e58216fMgttU8ysTbFkKizQ[] = {
/* columns rows colors chars-per-pixel */
"32 32 8 1 ",
"  c gray26",
". c #795548",
"X c gray38",
"o c #8D6E63",
"O c #A1887F",
"+ c #FFAB91",
"@ c #FFCCBC",
"# c #FFE0B2",
/* pixels */
"X... ....              .... ... ",
"....@....@............@....@....",
"....@....@............@....@....",
"....@....@............@....@....",
"X@@@@@@@@@@@@@@@@@@@@@@@@@@@@@@ ",
"....@oooo@oooooooooooo@oooo@....",
"....@oooo@oooooooooooo@oooo@....",
"....@oooo@oooooooooooo@oooo@....",
"....@oooo@oooooooooooo@oooo@....",
"X@@@@@@@@@@@@@@@@@@@@@@@@@@@@@@ ",
"X...@oooo@OOOO####OOOO@oooo@... ",
"X...@oooo@OOOO####OOOO@oooo@... ",
"X...@oooo@OOOO####OOOO@oooo@... ",
"X...@oooo@OOOO####OOOO@oooo@... ",
"X...@oooo@####++++####@oooo@... ",
"X...@oooo@####++++####@oooo@... ",
"X...@oooo@####++++####@oooo@... ",
"X...@oooo@####++++####@oooo@... ",
"X...@oooo@OOOO####OOOO@oooo@... ",
"X...@oooo@OOOO####OOOO@oooo@... ",
"X...@oooo@OOOO####OOOO@oooo@... ",
"X...@oooo@OOOO####OOOO@oooo@... ",
"X@@@@@@@@@@@@@@@@@@@@@@@@@@@@@@ ",
"....@oooo@oooooooooooo@oooo@....",
"....@oooo@oooooooooooo@oooo@....",
"....@oooo@oooooooooooo@oooo@....",
"....@oooo@oooooooooooo@oooo@....",
"X@@@@@@@@@@@@@@@@@@@@@@@@@@@@@@ ",
"....@....@............@....@....",
"....@....@............@....@....",
"....@....@............@....@....",
"X...X....XXXXXXXXXXXXXX....X... "
};
