/* XPM */
static char *_a5bb96bb2ae4f71d6f11e9cd5b47d0d5SvLplM1vyoR4Zao[] = {
/* columns rows colors chars-per-pixel */
"32 32 7 1 ",
"  c black",
". c #6F574C",
"X c #847067",
"o c #9A8A81",
"O c #E9B19A",
"+ c #F6E2BD",
"@ c #F0CFC1",
/* pixels */
"                                ",
" ...@....@............@....@... ",
" ...@....@............@....@... ",
" ...@....@............@....@... ",
" @@@@@@@@@@@@@@@@@@@@@@@@@@@@@@ ",
" ...@XXXX@XXXXXXXXXXXX@XXXX@... ",
" ...@XXXX@XXXXXXXXXXXX@XXXX@... ",
" ...@XXXX@XXXXXXXXXXXX@XXXX@... ",
" ...@XXXX@XXXXXXXXXXXX@XXXX@... ",
" @@@@@@@@@@@@@@@@@@@@@@@@@@@@@@ ",
" ...@XXXX@oooo++++oooo@XXXX@... ",
" ...@XXXX@oooo++++oooo@XXXX@... ",
" ...@XXXX@oooo++++oooo@XXXX@... ",
" ...@XXXX@oooo++++oooo@XXXX@... ",
" ...@XXXX@++++OOOO++++@XXXX@... ",
" ...@XXXX@++++OOOO++++@XXXX@... ",
" ...@XXXX@++++OOOO++++@XXXX@... ",
" ...@XXXX@++++OOOO++++@XXXX@... ",
" ...@XXXX@oooo++++oooo@XXXX@... ",
" ...@XXXX@oooo++++oooo@XXXX@... ",
" ...@XXXX@oooo++++oooo@XXXX@... ",
" ...@XXXX@oooo++++oooo@XXXX@... ",
" @@@@@@@@@@@@@@@@@@@@@@@@@@@@@@ ",
" ...@XXXX@XXXXXXXXXXXX@XXXX@... ",
" ...@XXXX@XXXXXXXXXXXX@XXXX@... ",
" ...@XXXX@XXXXXXXXXXXX@XXXX@... ",
" ...@XXXX@XXXXXXXXXXXX@XXXX@... ",
" @@@@@@@@@@@@@@@@@@@@@@@@@@@@@@ ",
" ...@....@............@....@... ",
" ...@....@............@....@... ",
" ...@....@............@....@... ",
"                                "
};
