/* XPM */
static char *result[] = {
/* columns rows colors chars-per-pixel */
"32 32 8 1 ",
"  c gray26",
". c #6F574C",
"X c gray38",
"o c #847067",
"O c #9A8A81",
"+ c #B7ABA6",
"@ c #D3CCC9",
"# c #F0CFC1",
/* pixels */
"X    ....              ....     ",
"....#....#............#....#....",
"....#....#............#....#....",
"....#....#............#....#....",
"X############################## ",
"....#oooo#oooooooooooo#oooo#....",
"....#oooo#oooooooooooo#oooo#....",
"....#oooo#oooooooooooo#oooo#....",
"....#oooo#oooooooooooo#oooo#....",
"X############################## ",
"X...#oooo#OOOO++++OOOO#oooo#... ",
"X...#oooo#OOOO++++OOOO#oooo#... ",
"X...#oooo#OOOO++++OOOO#oooo#... ",
"X...#oooo#OOOO++++OOOO#oooo#... ",
"X...#oooo#++++@@@@++++#oooo#... ",
"X...#oooo#++++@@@@++++#oooo#... ",
"X...#oooo#++++@@@@++++#oooo#... ",
"X...#oooo#++++@@@@++++#oooo#... ",
"X...#oooo#OOOO++++OOOO#oooo#... ",
"X...#oooo#OOOO++++OOOO#oooo#... ",
"X...#oooo#OOOO++++OOOO#oooo#... ",
"X...#oooo#OOOO++++OOOO#oooo#... ",
"X############################## ",
"....#oooo#oooooooooooo#oooo#....",
"....#oooo#oooooooooooo#oooo#....",
"....#oooo#oooooooooooo#oooo#....",
"....#oooo#oooooooooooo#oooo#....",
"X############################## ",
"....#....#............#....#....",
"....#....#............#....#....",
"....#....#............#....#....",
"X...X....XXXXXXXXXXXXXX....X... "
};
