/* XPM */
static char *_253ce02f2cb46aada3925d2706b47fbyugKmF3IJ1feOPl9[] = {
/* columns rows colors chars-per-pixel */
"32 32 7 1 ",
"  c #795548",
". c #B71C1C",
"X c #D50000",
"o c #FF5722",
"O c #FF9800",
"+ c #FFC107",
"@ c #FFEB3B",
/* pixels */
" OOoo..@@++OOoo..ooOO++@@..ooOO ",
"O Ooo..@@++OOoo..ooOO++@@..ooO O",
"OO oo..@@++OOoo..ooOO++@@..oo OO",
"ooo o..@@++OOoo..ooOO++@@..o ooo",
"oooo ..@@++OOoo..ooOO++@@.. oooo",
"..... .@@++OOoo..ooOO++@@. .....",
"...... @@++OOoo..ooOO++@@ ......",
"@@@@@@@ @++OOoo..ooOO++@ @@@@@@@",
"@@@@@@@@ ++OOoo..ooOO++ @@@@@@@@",
"+++++++++ +OOoo..ooOO+ +++++++++",
"++++++++++ OOoo..ooOO ++++++++++",
"OOOOOOOOOOO Ooo..ooO OOOOOOOOOOO",
"OOOOOOOOOOOO oo..oo OOOOOOOOOOOO",
"ooooooooooooo o..o ooooooooooooo",
"oooooooooooooo    oooooooooooooo",
".............. XX ..............",
".............. XX ..............",
"oooooooooooooo    oooooooooooooo",
"ooooooooooooo o..o ooooooooooooo",
"OOOOOOOOOOOO oo..oo OOOOOOOOOOOO",
"OOOOOOOOOOO Ooo..ooO OOOOOOOOOOO",
"++++++++++ OOoo..ooOO ++++++++++",
"+++++++++ +OOoo..ooOO+ +++++++++",
"@@@@@@@@ ++OOoo..ooOO++ @@@@@@@@",
"@@@@@@@ @++OOoo..ooOO++@ @@@@@@@",
"...... @@++OOoo..ooOO++@@ ......",
"..... .@@++OOoo..ooOO++@@. .....",
"oooo ..@@++OOoo..ooOO++@@.. oooo",
"ooo o..@@++OOoo..ooOO++@@..o ooo",
"OO oo..@@++OOoo..ooOO++@@..oo OO",
"O Ooo..@@++OOoo..ooOO++@@..ooO O",
" OOoo..@@++OOoo..ooOO++@@..ooOO "
};
