/* XPM */
static char *_c0468dc9a9442ebb69ffa680e76c685uhPRZkQpm1vbPVFn[] = {
/* columns rows colors chars-per-pixel */
"32 32 7 1 ",
"  c black",
". c #795548",
"X c #8D6E63",
"o c #A1887F",
"O c #FFAB91",
"+ c #FFCCBC",
"@ c #FFE0B2",
/* pixels */
" ... ....              .... ... ",
"....+....+............+....+....",
"....+....+............+....+....",
"....+....+............+....+....",
" ++++++++++++++++++++++++++++++ ",
"....+XXXX+XXXXXXXXXXXX+XXXX+....",
"....+XXXX+XXXXXXXXXXXX+XXXX+....",
"....+XXXX+XXXXXXXXXXXX+XXXX+....",
"....+XXXX+XXXXXXXXXXXX+XXXX+....",
" ++++++++++++++++++++++++++++++ ",
" ...+XXXX+oooo@@@@oooo+XXXX+... ",
" ...+XXXX+oooo@@@@oooo+XXXX+... ",
" ...+XXXX+oooo@@@@oooo+XXXX+... ",
" ...+XXXX+oooo@@@@oooo+XXXX+... ",
" ...+XXXX+@@@@OOOO@@@@+XXXX+... ",
" ...+XXXX+@@@@OOOO@@@@+XXXX+... ",
" ...+XXXX+@@@@OOOO@@@@+XXXX+... ",
" ...+XXXX+@@@@OOOO@@@@+XXXX+... ",
" ...+XXXX+oooo@@@@oooo+XXXX+... ",
" ...+XXXX+oooo@@@@oooo+XXXX+... ",
" ...+XXXX+oooo@@@@oooo+XXXX+... ",
" ...+XXXX+oooo@@@@oooo+XXXX+... ",
" ++++++++++++++++++++++++++++++ ",
"....+XXXX+XXXXXXXXXXXX+XXXX+....",
"....+XXXX+XXXXXXXXXXXX+XXXX+....",
"....+XXXX+XXXXXXXXXXXX+XXXX+....",
"....+XXXX+XXXXXXXXXXXX+XXXX+....",
" ++++++++++++++++++++++++++++++ ",
"....+....+............+....+....",
"....+....+............+....+....",
"....+....+............+....+....",
" ... ....              .... ... "
};
