/* XPM */
static char *_aeefea0c0964e688c26006e8dfa9febwuf2ZtEFqAdyd72z[] = {
/* columns rows colors chars-per-pixel */
"100 100 10 1 ",
"  c None",
". c black",
"X c #3A2824",
"o c #E15241",
"O c #5AC461",
"+ c #F19C38",
"@ c #FFFE54",
"# c #9033AA",
"$ c gray62",
"% c white",
/* pixels */
"         oooo ooo oooo                                                                              ",
"        ooooooooooooooo                                                                             ",
"        ooooooooooooooo                                                                             ",
"        ooooooooooooooo                                                                             ",
"       ooo...........ooo                                                                            ",
"       oo.%%%%%%%%%%%.oo                                                                            ",
"       oo.%%%.%%%.%%%.oo                                                                            ",
"       oo.%%.%.%.%.%%.oo                                                                            ",
"        o.#%%.%%%.%%#.o                                                                             ",
"         .##%%%+%%%##.                                                                              ",
"         .#%.%%+%%.%#.                                                                              ",
"         .%.%.%%%.%.%.                                                                              ",
"         .%.%$...$%.%.                                                                              ",
"         .%%.%%$%%.%%.                                                                              ",
"          .%%.....%%.                                                                               ",
"           .%%%%%%%.                                                                                ",
"            .......                                                                                 ",
"             .@@@.                                                                                  ",
"          ...@@X@@...                                                                               ",
"         .@@@@@@@@@@@.                                                                              ",
"         .@@@@@X@@@@@.                                                                              ",
"         .@@.@@@@@.@@.                                                                              ",
"         .@@.@@X@@.@@.                                                                              ",
"         .@@.......@@.                                                                              ",
"          .. .OOO. ..                                                                               ",
"             .O.O.                                                                                  ",
"             .O.O.                                                                                  ",
"             .O.O.                                                                                  ",
"             .O.O.                                                                                  ",
"             .O.O.                                                                                  ",
"            ... ...                                                                                 ",
"           .... ....                                                                                ",
"                                                                                                    ",
"                                                                                                    ",
"                                                                                                    ",
"                                                                                                    ",
"                                                                                                    ",
"                                                                                                    ",
"                                                                                                    ",
"                                                                                                    ",
"                                                                                                    ",
"                                                                                                    ",
"                                                                                                    ",
"                                                                                                    ",
"                                                                                                    ",
"                                                                                                    ",
"                                                                                                    ",
"                                                                                                    ",
"                                                                                                    ",
"                                                                                                    ",
"                                                                                                    ",
"                                                                                                    ",
"                                                                                                    ",
"                                                                                                    ",
"                                                                                                    ",
"                                                                                                    ",
"                                                                                                    ",
"                                                                                                    ",
"                                                                                                    ",
"                                                                                                    ",
"                                                                                                    ",
"                                                                                                    ",
"                                                                                                    ",
"                                                                                                    ",
"                                                                                                    ",
"                                                                                                    ",
"                                                                                                    ",
"                                                                                                    ",
"                                                                                                    ",
"                                                                                                    ",
"                                                                                                    ",
"                                                                                                    ",
"                                                                                                    ",
"                                                                                                    ",
"                                                                                                    ",
"                                                                                                    ",
"                                                                                                    ",
"                                                                                                    ",
"                                                                                                    ",
"                                                                                                    ",
"                                                                                                    ",
"                                                                                                    ",
"                                                                                                    ",
"                                                                                                    ",
"                                                                                                    ",
"                                                                                                    ",
"                                                                                                    ",
"                                                                                                    ",
"                                                                                                    ",
"                                                                                                    ",
"                                                                                                    ",
"                                                                                                    ",
"                                                                                                    ",
"                                                                                                    ",
"                                                                                                    ",
"                                                                                                    ",
"                                                                                                    ",
"                                                                                                    ",
"                                                                                                    ",
"                                                                                                    "
};
