/* XPM */
static char *ab6728653ead488fd21bc99db7afb9b3sdAUteBE3GHRSy6P[] = {
/* columns rows colors chars-per-pixel */
"32 32 5 1 ",
"  c #77AA64",
". c #9FBF69",
"X c #D2DA6D",
"o c #589288",
"O c gray62",
/* pixels */
"XXXOoooooooO       O.......OXXXX",
"XXXOoooooooO       O.......OXXXX",
"XXXOoooooooO       O.......OXXXX",
"OOOOOOOOOOOOOOOOOOOOOOOOOOOOOOOO",
"oooooooO       O.......OXXXXXXXO",
"oooooooO       O.......OXXXXXXXO",
"oooooooO       O.......OXXXXXXXO",
"OOOOOOOOOOOOOOOOOOOOOOOOOOOOOOOO",
"XXXOoooooooO       O.......OXXXX",
"XXXOoooooooO       O.......OXXXX",
"XXXOoooooooO       O.......OXXXX",
"OOOOOOOOOOOOOOOOOOOOOOOOOOOOOOOO",
"oooooooO       O.......OXXXXXXXO",
"oooooooO       O.......OXXXXXXXO",
"oooooooO       O.......OXXXXXXXO",
"OOOOOOOOOOOOOOOOOOOOOOOOOOOOOOOO",
"XXXOoooooooO       O.......OXXXX",
"XXXOoooooooO       O.......OXXXX",
"XXXOoooooooO       O.......OXXXX",
"OOOOOOOOOOOOOOOOOOOOOOOOOOOOOOOO",
"oooooooO       O.......OXXXXXXXO",
"oooooooO       O.......OXXXXXXXO",
"oooooooO       O.......OXXXXXXXO",
"OOOOOOOOOOOOOOOOOOOOOOOOOOOOOOOO",
"XXXOoooooooO       O.......OXXXX",
"XXXOoooooooO       O.......OXXXX",
"XXXOoooooooO       O.......OXXXX",
"OOOOOOOOOOOOOOOOOOOOOOOOOOOOOOOO",
"oooooooO       O.......OXXXXXXXO",
"oooooooO       O.......OXXXXXXXO",
"oooooooO       O.......OXXXXXXXO",
"OOOOOOOOOOOOOOOOOOOOOOOOOOOOOOOO"
};
