/* XPM */
static char *a21eacf411da4a23c34ba8890b6fc540Y2QROy7mQ9xJz43z[] = {
/* columns rows colors chars-per-pixel */
"32 32 6 1 ",
"  c black",
". c gray26",
"X c #5D6C78",
"o c gray38",
"O c gray46",
"+ c gray62",
/* pixels */
"                                ",
"+XOOOXoooX...X+++XOOOXoooX...X++",
"+XOOOXoooX...X+++XOOOXoooX...X++",
"+XOOOXoooX...X+++XOOOXoooX...X++",
" XXXXXXXXXXXXXXXXXXXXXXXXXXXXXX ",
"OOOXoooX...X+++XOOOXoooX...X+++ ",
"OOOXoooX...X+++XOOOXoooX...X+++ ",
"OOOXoooX...X+++XOOOXoooX...X+++ ",
" XXXXXXXXXXXXXXXXXXXXXXXXXXXXXX ",
"+XOOOXoooX...X+++XOOOXoooX...X++",
"+XOOOXoooX...X+++XOOOXoooX...X++",
"+XOOOXoooX...X+++XOOOXoooX...X++",
" XXXXXXXXXXXXXXXXXXXXXXXXXXXXXX ",
"OOOXoooX...X+++XOOOXoooX...X+++ ",
"OOOXoooX...X+++XOOOXoooX...X+++ ",
"OOOXoooX...X+++XOOOXoooX...X+++ ",
" XXXXXXXXXXXXXXXXXXXXXXXXXXXXXX ",
"+XOOOXoooX...X+++XOOOXoooX...X++",
"+XOOOXoooX...X+++XOOOXoooX...X++",
"+XOOOXoooX...X+++XOOOXoooX...X++",
" XXXXXXXXXXXXXXXXXXXXXXXXXXXXXX ",
"OOOXoooX...X+++XOOOXoooX...X+++ ",
"OOOXoooX...X+++XOOOXoooX...X+++ ",
"OOOXoooX...X+++XOOOXoooX...X+++ ",
" XXXXXXXXXXXXXXXXXXXXXXXXXXXXXX ",
"+XOOOXoooX...X+++XOOOXoooX...X++",
"+XOOOXoooX...X+++XOOOXoooX...X++",
"+XOOOXoooX...X+++XOOOXoooX...X++",
" XXXXXXXXXXXXXXXXXXXXXXXXXXXXXX ",
"OOOXoooX...X+++XOOOXoooX...X+++ ",
"OOOXoooX...X+++XOOOXoooX...X+++ ",
"OOO ooo ... +++ OOO ooo ... +++ "
};
